<svg width="24" height="24" viewBox="0 0 24 24" fill="none" xmlns="http://www.w3.org/2000/svg">
  <title>Qoder</title>
  <style>
    .qoder-line {
      stroke: #141414;
    }

    @media (prefers-color-scheme: dark) {
      .qoder-line {
        stroke: #fdfdfd;
      }
    }
  </style>
  <path
    class="qoder-line"
    d="M12.5 21.2c-.6-.1-1.2-.3-1.8-.6l-6.4-3.3c-1.7-.9-2.8-2.6-2.8-4.5V9.6c0-3.3 2.2-6.3 5.4-7.2l.6-.2c1.4-.4 2.9-.2 4.2.5l6.4 3.3c1.6.8 2.6 2.5 2.6 4.3v8.8c0 .8-.8 1.4-1.6 1.1l-1.8-.8c-.9.6-1.9 1-3 1.3-.6.1-1.2.2-1.8.2Z"
    stroke-width="1.5"
    stroke-linecap="round"
    stroke-linejoin="round"
  />
  <path
    class="qoder-line"
    d="M13.8 6.2c-2.9.8-4.9 3.4-4.9 6.4v3.2c0 2 .8 3.8 2.1 5"
    stroke-width="1.5"
    stroke-linecap="round"
    stroke-linejoin="round"
  />
  <path
    class="qoder-line"
    d="M14 6.1c2.9-.1 5.3 2.2 5.3 5.1v6.2"
    stroke-width="1.5"
    stroke-linecap="round"
    stroke-linejoin="round"
  />
</svg>
